<?xml version="1.0" encoding="utf-8"?>
<!-- Generator: Adobe Illustrator 24.1.1, SVG Export Plug-In . SVG Version: 6.00 Build 0)  -->
<svg version="1.1" id="Layer_1" xmlns="http://www.w3.org/2000/svg" xmlns:xlink="http://www.w3.org/1999/xlink" x="0px" y="0px"
	 viewBox="0 0 1920 882.4" style="enable-background:new 0 0 1920 882.4;" xml:space="preserve">
<style type="text/css">
	.st0{display:none;}
	.st1{display:inline;fill:#0B000C;}
	.st2{fill:#C40052;}
	.st3{enable-background:new    ;}
	.st4{fill:#EDEDED;}
</style>
<g id="Layer_2_1_" class="st0">
	<rect y="-98.8" class="st1" width="1920" height="1080"/>
</g>
<g>
	<polygon class="st2" points="1687.1,95.1 1687.1,48.5 1640.5,48.5 1594,48.5 1594,95.1 1640.5,95.1 1687.1,95.1 1687.1,141.6 
		1733.6,141.6 1733.6,95.1 	"/>
	<polygon class="st2" points="1780.2,141.6 1733.6,141.6 1733.6,188.2 1780.2,188.2 1780.2,141.6 1826.7,141.6 1826.7,95.1 
		1780.2,95.1 	"/>
	<rect x="1780.2" y="2" class="st2" width="46.6" height="46.5"/>
	<rect x="1873.4" y="141.6" class="st2" width="46.6" height="46.5"/>
	<polygon class="st2" points="1547.4,141.6 1500.9,141.6 1500.9,141.6 1454.2,141.6 1454.2,188.2 1500.9,188.2 1500.9,188.2 
		1547.4,188.2 1547.4,234.9 1500.9,234.9 1500.9,281.3 1454.2,281.3 1454.2,236.1 1454.2,234.9 1454.2,188.2 1407.8,188.2 
		1407.8,234.9 1407.8,236.1 1407.8,281.3 1407.8,327.8 1454.2,327.8 1454.2,374.5 1500.9,374.5 1500.9,374.5 1547.4,374.5 
		1547.4,374.5 1594,374.5 1594,327.8 1640.5,327.8 1640.5,281.3 1640.5,236.1 1640.5,234.9 1640.5,188.2 1594,188.2 1594,141.6 
		1594,95.1 1547.4,95.1 	"/>
	<rect x="1873.4" y="48.5" class="st2" width="46.6" height="46.5"/>
</g>
<g class="st3">
	<path class="st2" d="M185.8,1.7h394.7v187.9H185.8v159.6h383.9v187.9H185.8v342.5H0V1.7L185.8,1.7L185.8,1.7z"/>
</g>
<g>
	<g class="st3">
		<path class="st2" d="M772.8,0v294.4h174.4V374H770.4h-82.6v-79.6V0H772.8z"/>
	</g>
</g>
<g class="st3">
	<path class="st2" d="M1368.1,187.5c0,102.7-86.7,186.1-193.6,186.1c-106.8,0-193.6-83.4-193.6-186.1S1067.8,1.4,1174.6,1.4
		C1281.4,1.4,1368.1,84.7,1368.1,187.5z M1060.6,187.5c0,61,56.2,113.1,114,113.1s114-52.1,114-113.1s-56.2-113.1-114-113.1
		C1116.8,74.4,1060.6,126.5,1060.6,187.5z"/>
</g>
<g class="st3">
	<path class="st4" d="M745.7,701.1v177.6h-58.4V432.1h120.1c29.9,0,50.9,7.8,63.2,23.5c12.3,15.7,18.4,37.6,18.4,65.8v90.2
		c0,28.2-6.1,50.1-18.4,65.8c-12.3,15.7-33.4,23.5-63.2,23.5h-61.7V701.1z M745.7,648.6h50c13.9,0,23.6-4,29.6-12
		c5.8-8.1,8.8-19.5,8.8-34.3v-73.9c0-13.4-2.9-23.8-8.8-30.9c-5.8-7.2-15.7-10.8-29.6-10.8h-50V648.6z"/>
	<path class="st4" d="M1043.1,878.5l-16.9-104.9h-79.3l-15.5,104.9h-56.5l73.3-446.4h78.5l73.3,446.4H1043.1z M954.7,721.8h63.6
		l-30.5-195.5h-2.6L954.7,721.8z"/>
	<path class="st4" d="M1126.1,878.5V432.1h106.5c65.4,0,98,34.3,98,102.9v234.7c0,37.2-8.2,64.6-24.7,82.3
		c-16.5,17.7-40.8,26.5-73.3,26.5L1126.1,878.5L1126.1,878.5z M1228.7,824.1c17.7,0,29.6-6.2,35.4-18.9c5.8-12.5,8.8-30,8.8-52.4
		V556.4c0-21.5-3.2-38.6-9.4-51.1c-6.2-12.5-18.9-18.9-37.9-18.9h-42.2v337.6L1228.7,824.1L1228.7,824.1z"/>
	<path class="st4" d="M1568.2,770.9c0,37.6-8.8,65.7-26.4,84c-17.5,18.4-42.5,27.6-75,27.6c-33.8,0-59.4-9.8-77-29.3
		c-17.5-19.5-26.4-47.4-26.4-83.7V543c0-36.3,9-64.6,27-84.7c18-20.1,43.1-30.3,75.6-30.3s57.6,10.4,75.3,30.9
		c17.7,20.6,26.7,49.1,26.7,85.3v226.6H1568.2z M1511.1,538.9c0-17.5-4-30.9-11.7-40.4c-7.8-9.4-19.1-14.2-33.8-14.2
		c-13.9,0-24.7,4.6-32.5,13.7s-11.7,22.6-11.7,39.9v235.3c0,35.4,14.9,53.2,44.8,53.2c14.3,0,25.3-4.3,33.1-12.8
		c7.8-8.5,11.7-21.8,11.7-39.6V538.9H1511.1z"/>
	<path class="st4" d="M1747.3,563.9v-25.6c0-16.6-3.5-29.7-10.7-39.3s-18.9-14.5-35.4-14.5c-15.5,0-27.1,4.4-34.4,13.4
		c-7.3,9-11,20-11,32.9v17.5c0,9.9,1.7,18.1,5.2,24.8c3.5,6.7,10.2,14.3,20.1,22.9c7.3,5.8,15.5,11.7,24.4,17.8
		c8.8,6.1,17.7,12,26.4,17.8c8.7,5.8,17.1,11.7,25.3,17.5c8.2,5.8,15.4,11.4,21.5,16.8c9.9,9,17.7,19.5,23,31.5
		c5.3,12,8.1,28.5,8.1,49.1v27.6c0,34.9-8.4,61.7-25,80.3s-44,27.9-82.1,27.9c-38.1,0-65.4-9.4-81.8-28.5
		c-16.5-19.1-24.7-46.9-24.7-83.7v-25.6h55.2v26.2c0,18.4,4,32.3,11.7,41.8c7.8,9.4,20.6,14.2,38.3,14.2c15.1,0,26.8-4,35.1-12
		c8.2-8.1,12.3-21,12.3-39v-20.1c0-6.7-0.5-12.6-1.4-17.8c-0.9-5.2-2.4-9.9-4.6-14.2c-2.1-4.3-5-8.2-8.8-12
		c-3.7-3.8-8.1-7.9-13.3-12.5c-15.1-13-30.5-24.4-46-34.3c-15.5-9.9-30-21.5-43.4-34.9c-10.8-11.6-19.1-23.8-24.7-36.3
		s-8.4-27.7-8.4-45.7v-19.5c0-29.6,8.1-53.6,24.4-72.2c16.2-18.6,42.4-27.9,78.2-27.9c19.5,0,35.7,2.9,48.6,8.7
		c13,5.8,23.3,13.9,31.1,24.2c7.8,10.4,13.3,22.7,16.6,37c3.2,14.3,4.9,29.9,4.9,46.3v19.5h-54.6V563.9z"/>
</g>
</svg>
